<svg xmlns="http://www.w3.org/2000/svg" width="37.799" height="32.884" viewBox="0 0 37.799 32.884">
  <path id="Shopping-Cart-Icon-ij2dsds" d="M20.634,31.832a2.83,2.83,0,1,1,.13,0Zm-1.211-2.889a1.341,1.341,0,1,0,1.4-1.279h-.061A1.342,1.342,0,0,0,19.423,28.943Zm-9.3,2.786a2.83,2.83,0,1,1,.131,0ZM8.912,28.84a1.341,1.341,0,1,0,1.4-1.279h-.061A1.343,1.343,0,0,0,8.912,28.84ZM24.2,25.223,6.916,25.066a.745.745,0,1,1,.014-1.49l16.663.151.449-2.3-5.087-.047h0l-10-.091h0L4.046,21.24a.746.746,0,0,1-.716-.563L1.284,12.531H1.235v-.2L.023,7.506A.745.745,0,0,1,.752,6.58l5.341.049h0l20.792.19.5-2.562a.745.745,0,0,1,.419-.535L35.734.068a.745.745,0,0,1,.624,1.354L28.773,4.915l-.546,2.811h0l-3.288,16.9a.745.745,0,0,1-.731.6Zm-4.3-5.329,4.433.041.468-2.4H20.459Zm-5.114-.046,3.586.032.556-2.35h-4.12ZM9.563,19.8l3.734.034.021-2.3H9.07Zm-4.928-.044,3.4.031-.49-2.255H4.076Zm20.458-3.725.681-3.5H21.64l-.827,3.5Zm-5.81,0,.828-3.5H14.853l-.032,3.5Zm-5.951,0,.032-3.5H7.983l.76,3.5Zm-6.113,0-.76-3.5H2.82l.879,3.5Zm18.847-5L26.6,8.305l-3.948-.036-.653,2.762Zm-5.6,0,.656-2.776L14.893,8.2l-.026,2.832Zm-7.087,0L13.4,8.185,7.026,8.127l.631,2.9Zm-7.244,0L5.5,8.113,1.7,8.078l.741,2.953Z" transform="translate(0.505 0.549)" stroke="rgba(0,0,0,0)" stroke-miterlimit="10" stroke-width="1"/>
</svg>
